<?xml version="1.0" encoding="UTF-8" standalone="no"?>
<!-- Created with Inkscape (http://www.inkscape.org/) -->

<svg
   xmlns:osb="http://www.openswatchbook.org/uri/2009/osb"
   xmlns:dc="http://purl.org/dc/elements/1.1/"
   xmlns:cc="http://creativecommons.org/ns#"
   xmlns:rdf="http://www.w3.org/1999/02/22-rdf-syntax-ns#"
   xmlns:svg="http://www.w3.org/2000/svg"
   xmlns="http://www.w3.org/2000/svg"
   xmlns:sodipodi="http://sodipodi.sourceforge.net/DTD/sodipodi-0.dtd"
   xmlns:inkscape="http://www.inkscape.org/namespaces/inkscape"
   sodipodi:docname="audio-volume-muted-panel.svg"
   height="22"
   id="svg6530"
   version="1.1"
   inkscape:version="0.92.4 5da689c313, 2019-01-14"
   viewBox="0 0 22 22"
   width="22">
  <defs
     id="defs6532">
    <linearGradient
       id="linearGradient5606"
       osb:paint="solid">
      <stop
         id="stop5608"
         offset="0"
         style="stop-color:#000000;stop-opacity:1;" />
    </linearGradient>
  </defs>
  <sodipodi:namedview
     inkscape:bbox-nodes="true"
     bordercolor="#666666"
     borderopacity="1.0"
     inkscape:current-layer="layer1"
     inkscape:cx="12.515816"
     inkscape:cy="15.177598"
     inkscape:document-units="px"
     id="base"
     inkscape:object-nodes="true"
     inkscape:object-paths="true"
     pagecolor="#454d50"
     inkscape:pageopacity="0"
     inkscape:pageshadow="2"
     showgrid="false"
     inkscape:snap-bbox="true"
     inkscape:snap-bbox-edge-midpoints="true"
     inkscape:snap-bbox-midpoints="true"
     inkscape:snap-smooth-nodes="true"
     units="px"
     inkscape:window-height="715"
     inkscape:window-maximized="1"
     inkscape:window-width="1366"
     inkscape:window-x="0"
     inkscape:window-y="30"
     inkscape:zoom="11.313708">
    <inkscape:grid
       empspacing="4"
       id="grid8845"
       originx="-105.0002"
       originy="-680.99826"
       type="xygrid" />
  </sodipodi:namedview>
  <metadata
     id="metadata6535">
    <rdf:RDF>
      <cc:Work
         rdf:about="">
        <dc:format>image/svg+xml</dc:format>
        <dc:type
           rdf:resource="http://purl.org/dc/dcmitype/StillImage" />
        <dc:title />
      </cc:Work>
    </rdf:RDF>
  </metadata>
  <g
     inkscape:groupmode="layer"
     id="layer1"
     inkscape:label="panel"
     style="display:inline"
     transform="translate(-105.0002,-349.3639)">
    <rect
       height="22"
       id="rect5103"
       inkscape:label="audio-volume-high"
       style="color:#bebebe;display:inline;overflow:visible;visibility:visible;opacity:0.1;fill:none;stroke:none;stroke-width:1;marker:none"
       width="22"
       x="105.0002"
       y="349.36389" />
    <path
       inkscape:connector-curvature="0"
       d="m 119.8979,360.3639 c 0,-1.37667 -0.8165,-2.55889 -2.0012,-3.13444 v 1.71888 l 1.9612,1.90556 c 0.024,-0.15556 0.04,-0.31889 0.04,-0.49 z m 2.0013,0 c 0,0.73111 -0.1601,1.41556 -0.4323,2.05333 l 1.2088,1.17445 c 0.5283,-0.96445 0.8245,-2.06111 0.8245,-3.22778 0,-3.32889 -2.3935,-6.11333 -5.6035,-6.82111 v 1.60222 c 2.3134,0.66889 4.0025,2.75333 4.0025,5.21889 z m -11.7914,-7 -1.0166,0.98778 3.7864,3.67889 h -3.7864 v 4.66666 h 3.202 l 4.0025,3.88889 v -5.23444 l 3.4021,3.30555 c -0.5363,0.40445 -1.1367,0.72334 -1.8011,0.91778 v 1.60222 c 1.1047,-0.24111 2.1053,-0.73889 2.9538,-1.40777 l 1.6331,1.59444 1.0166,-0.98778 -7.2045,-7 z m 6.1879,0.77778 -1.673,1.62555 1.673,1.62556 z"
       id="path117"
       style="display:inline;fill:#ffffff;stroke-width:0.78905714" />
  </g>
  <g
     inkscape:groupmode="layer"
     id="layer2"
     inkscape:label="animations"
     transform="translate(-105.0002,102.99826)" />
</svg>
